#!OML:ASF C:\ViconDB\ViconDB\414\Spring2016\041811\Spring2016.ASF
:FULLY-SPECIFIED
:DEGREES
503
root 15.281 19.0375 -16.6629 896.65 -35.173 182.084
lowerback 7.51248 -7.84525 -4.36212
upperback 1.63316 -10.8471 -0.0982057
thorax -1.68027 -5.42971 3.17243
lowerneck -20.927 8.54248 -4.03497
upperneck 29.8638 8.87869 11.7684
head 12.5667 4.70482 6.60496
rclavicle 6.65432e-014 -2.94201e-014
rhumerus -81.0118 -30.5662 -31.2133
rradius 20.8149
rwrist 64.6387
rhand -19.5661 -9.9063
rfingers 7.12502
rthumb 6.75867 -39.7784
lclavicle 6.65432e-014 -2.94201e-014
lhumerus 11.659 -15.9487 82.8194
lradius 28.3616
lwrist -24.0074
lhand -31.5449 17.4944
lfingers 7.12502
lthumb -4.80925 47.4199
rfemur -16.637 -206.837 4.93736
rtibia 29.0658
rfoot -47.6601 -59.0588
rtoes 1.20164
lfemur -16.6545 12.9466 -7.21145
ltibia 31.2279
lfoot -8.62276 5.34862
ltoes -14.3189
504
root 15.1917 19.0066 -16.6372 896.484 -33.3977 181.902
lowerback 7.58211 -7.99781 -4.30395
upperback 1.75373 -11.0514 -0.00425074
thorax -1.56889 -5.54081 3.24666
lowerneck -21.0226 9.1832 -3.52215
upperneck 29.9883 9.82307 11.1772
head 12.6106 5.10243 6.43994
rclavicle -7.62588e-014 2.5842e-014
rhumerus -79.4703 -30.3692 -34.3109
rradius 21.2227
rwrist 64.4327
rhand -17.9779 -9.23008
rfingers 7.12502
rthumb 8.29168 -39.0474
lclavicle -7.62588e-014 2.5842e-014
lhumerus 11.5593 -17.6981 84.3302
lradius 28.5625
lwrist -24.5972
lhand -31.378 17.6013
lfingers 7.12502
lthumb -4.64812 47.5303
rfemur -16.7153 -206.268 4.70439
rtibia 29.3951
rfoot -48.281 -59.6551
rtoes 2.79734
lfemur -16.7748 13.6468 -7.86067
ltibia 31.3648
lfoot -7.1253 6.45689
ltoes -9.01356
505
root 15.106 18.9671 -16.606 896.265 -31.807 181.897
lowerback 7.72115 -8.24048 -4.12497
upperback 1.83514 -11.3693 0.0794058
thorax -1.55161 -5.70472 3.27035
lowerneck -21.0133 9.92004 -2.67879
upperneck 30.1949 10.798 10.4745
head 12.7115 5.52203 6.19086
rclavicle -1.2347e-013 -1.74931e-014
rhumerus -77.7386 -29.9114 -37.9639
rradius 21.8225
rwrist 63.2319
rhand -16.8318 -8.92236
rfingers 7.12502
rthumb 9.39765 -38.6929
lclavicle -1.2347e-013 -1.74931e-014
lhumerus 11.3979 -20.3523 85.2166
lradius 28.9575
lwrist -24.1054
lhand -31.6801 17.4978
lfingers 7.12502
lthumb -4.93989 47.4202
rfemur -16.7827 -205.654 4.62522
rtibia 29.7616
rfoot -48.5285 -60.2028
rtoes 3.84655
lfemur -16.8995 13.753 -8.25339
ltibia 31.6457
lfoot -8.01024 10.6884
ltoes -8.85078
506
root 15.0138 18.9299 -16.5739 895.945 -30.1263 182.106
lowerback 7.82306 -8.43855 -3.69981
upperback 1.92806 -11.6055 0.270899
thorax -1.53505 -5.82927 3.26475
lowerneck -20.9795 10.5706 -2.14697
upperneck 30.3146 11.7446 9.88117
head 12.7577 5.91397 6.0234
rclavicle 6.39838e-014 -1.98785e-014
rhumerus -76.1281 -29.515 -41.0402
rradius 22.5022
rwrist 61.7195
rhand -15.8184 -8.62942
rfingers 7.12502
rthumb 10.3753 -38.3534
lclavicle 6.39838e-014 -1.98785e-014
lhumerus 11.3094 -22.568 86.4003
lradius 29.3558
lwrist -24.1524
lhand -31.7647 17.5034
lfingers 7.12502
lthumb -5.02157 47.4239
rfemur -16.8179 -204.785 4.77087
rtibia 30.1365
rfoot -48.0432 -60.8608
rtoes 5.36778
lfemur -16.7734 13.6678 -8.36656
ltibia 32.0889
lfoot -9.7866 15.1339
ltoes -6.661
507
root 14.9223 18.8868 -16.5351 895.606 -28.5546 181.999
lowerback 8.18311 -8.63894 -3.54902
upperback 2.0641 -11.8839 0.304022
thorax -1.59189 -5.9746 3.28533
lowerneck -20.8372 11.3198 -1.23209
upperneck 30.4405 12.7693 9.0431
head 12.8488 6.34186 5.7185
rclavicle 7.49667e-014 -2.62396e-014
rhumerus -74.7277 -29.2125 -43.7691
rradius 23.3079
rwrist 60.2855
rhand -15.068 -8.45358
rfingers 7.12502
rthumb 11.0992 -38.1401
lclavicle 7.49667e-014 -2.62396e-014
lhumerus 11.1952 -24.6039 87.4947
lradius 29.7662
lwrist -24.5395
lhand -31.5783 17.3083
lfingers 7.12502
lthumb -4.84151 47.233
rfemur -17.0503 -203.456 4.53523
rtibia 30.5669
rfoot -47.1937 -61.5239
rtoes 6.42815
lfemur -16.478 13.7944 -8.78145
ltibia 32.5913
lfoot -11.2082 17.8594
ltoes -4.84431
508
root 14.8188 18.8543 -16.5116 895.113 -26.7835 182.18
lowerback 8.35755 -8.82425 -3.17566
upperback 2.24327 -12.1169 0.446776
thorax -1.52809 -6.10336 3.26391
lowerneck -20.6551 10.2771 0.0335147
upperneck 30.8118 14.4474 7.88941
head 13.1088 7.99934 5.59759
rclavicle 4.89507e-014 1.03368e-014
rhumerus -73.1111 -28.6629 -46.7175
rradius 24.2718
rwrist 57.2597
rhand -14.4748 -8.59044
rfingers 7.12502
rthumb 11.6713 -38.2454
lclavicle 4.89507e-014 1.03368e-014
lhumerus 10.8141 -25.9794 88.8419
lradius 30.3408
lwrist -25.972
lhand -31.1978 17.1487
lfingers 7.12502
lthumb -4.47414 47.0814
rfemur -17.2755 -202.079 4.59894
rtibia 30.9731
rfoot -46.802 -62.1342
rtoes 7.22795
lfemur -16.0104 14.0712 -8.82897
ltibia 33.146
lfoot -12.1771 19.4183
ltoes -3.58121
509
root 14.734 18.8179 -16.4782 894.767 -25.27 182.342
lowerback 8.66866 -9.06748 -2.95448
upperback 2.30806 -12.4399 0.597436
thorax -1.61849 -6.26938 3.372
lowerneck -20.4955 10.9356 0.705306
upperneck 31.0634 15.3851 7.32873
head 13.251 8.38191 5.4453
rclavicle -1.04673e-013 2.24627e-014
rhumerus -71.9452 -28.1974 -49.0457
rradius 25.2726
rwrist 55.4766
rhand -14.8038 -8.96794
rfingers 7.12502
rthumb 11.3539 -38.6406
lclavicle -1.04673e-013 2.24627e-014
lhumerus 10.6854 -28.207 89.6776
lradius 30.8222
lwrist -25.202
lhand -31.6016 16.5437
lfingers 7.12502
lthumb -4.86405 46.4679
rfemur -17.3966 -200.637 4.73874
rtibia 31.4369
rfoot -46.0243 -62.675
rtoes 7.41243
lfemur -15.7505 14.862 -8.88164
ltibia 33.5955
lfoot -12.9916 20.7299
ltoes -3.04459
510
root 14.6441 18.7802 -16.4492 894.429 -23.6897 182.557
lowerback 8.82455 -9.20946 -2.76518
upperback 2.45354 -12.6317 0.882448
thorax -1.51284 -6.3812 3.58405
lowerneck -20.4223 11.4845 1.03709
upperneck 31.1856 16.2336 6.79327
head 13.3364 8.68593 5.33351
rclavicle 1.50232e-013 -1.90833e-014
rhumerus -70.5745 -27.6679 -51.2836
rradius 26.2842
rwrist 53.2346
rhand -15.1768 -9.26382
rfingers 7.12502
rthumb 10.9942 -38.9559
lclavicle 1.50232e-013 -1.90833e-014
lhumerus 10.5507 -29.999 90.7597
lradius 31.5007
lwrist -26.1078
lhand -31.1918 16.2061
lfingers 7.12502
lthumb -4.46836 46.1389
rfemur -17.4693 -199.267 4.95777
rtibia 31.8861
rfoot -45.2589 -63.2292
rtoes 7.51003
lfemur -15.3721 15.818 -8.81651
ltibia 33.9124
lfoot -14.2348 22.1546
ltoes -2.7734
511
root 14.553 18.7441 -16.4219 894.331 -22.1051 182.4
lowerback 9.06694 -9.43155 -2.91622
upperback 2.50175 -12.9598 1.06692
thorax -1.49254 -6.55519 3.90398
lowerneck -20.4351 12.0867 1.29908
upperneck 31.3688 17.1322 6.43229
head 13.4441 9.02526 5.31906
rclavicle -8.36386e-014 1.07344e-014
rhumerus -69.0973 -26.8746 -53.6273
rradius 27.3945
rwrist 50.6106
rhand -15.2486 -9.3359
rfingers 7.12502
rthumb 10.925 -39.0317
lclavicle -8.36386e-014 1.07344e-014
lhumerus 10.4182 -31.6908 91.5691
lradius 32.1918
lwrist -26.2504
lhand -31.0811 15.6498
lfingers 7.12502
lthumb -4.36148 45.5848
rfemur -17.467 -198.02 4.80719
rtibia 32.3272
rfoot -44.1394 -63.9122
rtoes 8.26389
lfemur -14.9114 16.5477 -9.14614
ltibia 34.0836
lfoot -15.5766 23.4799
ltoes -2.15574
512
root 14.4733 18.7078 -16.399 894.053 -20.6116 182.419
lowerback 9.4865 -9.70764 -3.0534
upperback 2.58598 -13.369 1.20131
thorax -1.53407 -6.77025 4.20374
lowerneck -20.4506 12.7553 1.89382
upperneck 31.6671 18.0306 6.13454
head 13.6401 9.40612 5.30325
rclavicle 1.02191e-013 -3.10601e-014
rhumerus -67.6781 -25.7533 -56.3041
rradius 28.5604
rwrist 48.1076
rhand -16.1749 -9.4295
rfingers 7.12502
rthumb 10.0314 -39.1704
lclavicle 1.02191e-013 -3.10601e-014
lhumerus 10.3157 -34.2502 91.614
lradius 33.1789
lwrist -25.5995
lhand -31.2178 15.4875
lfingers 7.12502
lthumb -4.49344 45.4198
rfemur -17.5776 -196.671 4.84074
rtibia 32.7521
rfoot -42.7789 -64.3537
rtoes 8.57237
lfemur -14.1832 17.0823 -9.13972
ltibia 34.0343
lfoot -16.611 24.4171
ltoes -2.04024
513
root 14.3863 18.6827 -16.3806 894 -19.1363 182.776
lowerback 9.36106 -9.97153 -2.67779
upperback 2.63107 -13.6944 1.42594
thorax -1.42077 -6.94459 4.2312
lowerneck -20.367 13.2866 2.14062
upperneck 31.7657 18.7361 6.06316
head 13.6754 9.70781 5.35379
rclavicle -1.42745e-013 3.26069e-014
rhumerus -66.5472 -25.143 -58.098
rradius 29.5538
rwrist 46.1453
rhand -17.7668 -9.7432
rfingers 7.12502
rthumb 8.49539 -39.5523
lclavicle -1.42745e-013 3.26069e-014
lhumerus 10.244 -36.5123 91.9057
lradius 33.8736
lwrist -25.7143
lhand -31.3473 15.162
lfingers 7.12502
lthumb -4.6185 45.0916
rfemur -17.3028 -195.907 5.30936
rtibia 33.0624
rfoot -42.1591 -64.7784
rtoes 9.30077
lfemur -13.7342 17.4704 -8.81048
ltibia 33.8851
lfoot -17.5764 25.141
ltoes -2.08074
514
root 14.3093 18.6587 -16.3713 893.955 -17.7917 182.018
lowerback 9.59871 -10.0617 -3.50655
upperback 2.60523 -13.905 1.38757
thorax -1.37372 -7.05536 4.66494
lowerneck -20.6255 13.4494 1.60203
upperneck 32.4084 18.9384 6.98533
head 13.8066 9.86132 5.87077
rclavicle 4.24809e-014 -6.41081e-015
rhumerus -65.961 -24.4315 -59.6029
rradius 30.8644
rwrist 44.1725
rhand -18.7177 -9.45933
rfingers 7.12502
rthumb 7.57763 -39.3036
lclavicle 4.24809e-014 -6.41081e-015
lhumerus 9.75761 -38.3608 92.9465
lradius 34.5717
lwrist -25.874
lhand -31.5244 14.7085
lfingers 7.12502
lthumb -4.78948 44.6343
rfemur -17.441 -194.833 4.51067
rtibia 33.4102
rfoot -41.1272 -64.9451
rtoes 9.3894
lfemur -12.7322 17.6385 -9.50416
ltibia 33.5399
lfoot -18.5272 25.7981
ltoes -2.14855
515
root 14.2334 18.6497 -16.3624 894.122 -16.4819 182.503
lowerback 9.21765 -10.2774 -2.88879
upperback 2.49694 -14.1221 1.64068
thorax -1.34091 -7.16376 4.56026
lowerneck -20.3164 13.8272 1.87113
upperneck 32.4673 19.4995 6.73918
head 13.8093 10.0922 5.80803
rclavicle -7.1314e-015 -6.55989e-015
rhumerus -65.3586 -23.7473 -61.1618
rradius 32.0594
rwrist 42.1646
rhand -20.5857 -9.66946
rfingers 7.12502
rthumb 5.77439 -39.5708
lclavicle -7.1314e-015 -6.55989e-015
lhumerus 9.36021 -40.2582 93.8292
lradius 35.1957
lwrist -26.3226
lhand -31.3745 13.8613
lfingers 7.12502
lthumb -4.64474 43.7904
rfemur -16.9025 -194.153 5.18425
rtibia 33.6411
rfoot -40.4783 -64.9118
rtoes 9.22097
lfemur -12.4563 17.9754 -9.03604
ltibia 33.1825
lfoot -19.0112 26.1726
ltoes -2.49794
